<svg xmlns="http://www.w3.org/2000/svg" width="133.678" height="181.647" viewBox="0 0 133.678 181.647"><defs><style>.a{fill:#ce663b;stroke:#707070;}.b{fill:#fff;}.c{fill:#4cbed8;}.d{fill:#fafafa;stroke-linejoin:round;stroke-width:2px;font-size:49px;font-family:Poppins-Bold, Poppins;font-weight:700;}.d,.e{stroke:#000;stroke-linecap:round;}.e{fill:none;stroke-width:2.5px;}</style></defs><g transform="translate(14.268 44.455)"><path class="a" d="M16.309,1.131V12.689H.777L1.37,40.6,2.9,46.64l2.365,4.617,3.469,3.433,3.444,2.176,3.337,1.556,1.391,2.815v3.119l2.71,6.79,4.172,6.977L28.753,82.8l4.491,3.454,3.775,1.937,5.3,2.052.651,3.1v4.217l-.651,4.566-1.342,4.552s-2.471,6.12-2.85,6.713a22.213,22.213,0,0,0-1.106,3.044H67.8l-1.252-3.044-1.9-4.164-1.507-4.83-1.593-7.412.742-6.74,9.169-3.99,7.1-5.794,4.853-6.183L87.149,66.5l1.331-7.273,2.4-1.584,5.893-3.882,4.688-6.2,2.118-6.127V12.689H88.48V1.131Z"/><path class="b" d="M15.816,20.562H8.6V49.819l3.429-1.946,2.645-3.692,1.383-4.969Z" transform="translate(80)"/><path class="b" d="M8.839,20.562h7.218V49.819l-3.429-1.946L9.982,44.181,8.6,39.212Z"/><path d="M696.472,648.9H667.939a2.148,2.148,0,0,1-2.152-2.138,2.118,2.118,0,0,1,.331-1.139,55.393,55.393,0,0,0,4.8-12.634,27.57,27.57,0,0,0,.35-11.142,37.686,37.686,0,0,1-26.313-31.664,22.7,22.7,0,0,1-10.485-7.584,22.145,22.145,0,0,1-4.592-13.553V544.395a2.14,2.14,0,0,1,2.14-2.135h12.715v-9.368a2.144,2.144,0,0,1,2.142-2.14h70.677a2.149,2.149,0,0,1,2.152,2.14v9.368h12.7a2.137,2.137,0,0,1,2.135,2.135v24.651a22.107,22.107,0,0,1-4.6,13.553,22.618,22.618,0,0,1-10.473,7.584,37.684,37.684,0,0,1-26.294,31.663,28.087,28.087,0,0,0,.324,11.387,51.681,51.681,0,0,0,4.871,12.548,2.143,2.143,0,0,1-.91,2.879A2.27,2.27,0,0,1,696.472,648.9Zm-64.4-104.384.063,24.53a19.9,19.9,0,0,0,4.127,12.183,20.4,20.4,0,0,0,10.074,7.036,1.129,1.129,0,0,1,.789.975,35.421,35.421,0,0,0,25.427,30.638,1.12,1.12,0,0,1,.792.85,29.553,29.553,0,0,1-.227,12.758,57.721,57.721,0,0,1-5.045,13.256l28.2-.1a53.631,53.631,0,0,1-4.981-12.923,30.085,30.085,0,0,1-.2-12.994,1.123,1.123,0,0,1,.791-.851A35.42,35.42,0,0,0,717.3,589.239a1.129,1.129,0,0,1,.789-.975,20.329,20.329,0,0,0,10.063-7.036,19.883,19.883,0,0,0,4.14-12.183v-24.6l-13.712.066a1.129,1.129,0,0,1-1.127-1.129V532.932l-70.535.076.076,10.379a1.129,1.129,0,0,1-1.127,1.129Zm86.5,37.337a1.142,1.142,0,0,1-.584-.165,1.125,1.125,0,0,1-.543-.964V551.378a1.128,1.128,0,0,1,1.127-1.129h7.438a1.128,1.128,0,0,1,1.129,1.129v17.08a14.779,14.779,0,0,1-2.608,8.423,15.047,15.047,0,0,1-5.437,4.844A1.154,1.154,0,0,1,718.576,581.853Zm1.129-29.348v26.188a12.827,12.827,0,0,0,2.971-3.089,12.527,12.527,0,0,0,2.211-7.147V552.506Zm-73.842,29.348a1.151,1.151,0,0,1-.52-.127,14.954,14.954,0,0,1-5.456-4.852,14.777,14.777,0,0,1-2.608-8.416v-17.08a1.128,1.128,0,0,1,1.129-1.129h7.455a1.128,1.128,0,0,1,1.127,1.129v29.346a1.132,1.132,0,0,1-.541.964A1.149,1.149,0,0,1,645.863,581.853Zm-6.328-29.348v15.953a12.521,12.521,0,0,0,2.214,7.141,12.65,12.65,0,0,0,2.985,3.1V552.506Z" transform="translate(-629.879 -530.752)"/><path class="c" d="M37.95,163.2H93.256v11.38H37.95Z" transform="translate(-13.171 -45.05)"/><g transform="translate(22.817 115.892)"><path d="M700.939,613.472H644.163a1.127,1.127,0,0,1-1.127-1.127V598.707a1.127,1.127,0,0,1,1.127-1.127h56.776a1.127,1.127,0,0,1,1.127,1.127v13.638A1.127,1.127,0,0,1,700.939,613.472Zm-55.647-2.256H699.81v-11.38H645.292Z" transform="translate(-643.036 -597.58)"/></g><g transform="translate(29.179 129.528)"><path d="M691.882,613.106h-44.05a1.127,1.127,0,0,1-1.127-1.127v-5.407a1.128,1.128,0,0,1,1.127-1.129h44.05a1.128,1.128,0,0,1,1.127,1.129v5.407A1.127,1.127,0,0,1,691.882,613.106Zm-42.921-2.256h41.792V607.7H648.961Z" transform="translate(-646.705 -605.443)"/></g><text class="d" transform="translate(52.38 59.295)"><tspan x="-14.823" y="0">3</tspan></text><g transform="translate(-1183.5 -3096.705)"><path class="e" d="M1066.267,3039.691v25" transform="translate(169.733 13.809)"/><path class="e" d="M1066.267,3039.691v20" transform="translate(-1732.351 1685.078) rotate(-45)"/><path class="e" d="M0,20V0" transform="translate(1287 3094.642) rotate(-135)"/><path class="e" d="M0,10V0" transform="translate(1259 3083.16) rotate(-150)"/><path class="e" d="M0,0V10" transform="translate(1208 3074.5) rotate(-30)"/></g></g></svg>