<svg xmlns="http://www.w3.org/2000/svg" width="279.459" height="323.584" viewBox="0 0 279.459 323.584"><defs><style>.a{fill:none;}.b,.h{fill:#fff;}.c,.f{fill:#fd7442;}.d,.e{fill:#063796;}.d{font-size:46px;}.d,.f,.h{font-family:Poppins-Medium, Poppins;font-weight:500;}.f,.h{font-size:42px;}.g{fill:#4cbed8;}</style></defs><g transform="translate(-204.286 -138)"><g transform="translate(226.281 138)"><g transform="translate(33.199 42.86)"><path d="M423.925,429.063h-97.5a2.659,2.659,0,0,1-2.658-2.66V362.348a88.367,88.367,0,1,1,102.816,0V426.4A2.659,2.659,0,0,1,423.925,429.063Zm-94.842-5.32h92.183V360.97a2.665,2.665,0,0,1,1.142-2.184,83.016,83.016,0,1,0-94.468,0,2.665,2.665,0,0,1,1.143,2.184Z" transform="translate(-286.842 -202.108)"/></g><g transform="translate(113.686)"><path d="M409.889,172.344a2.659,2.659,0,0,1-2.658-2.661V140.66a2.658,2.658,0,1,1,5.316,0v29.023A2.659,2.659,0,0,1,409.889,172.344Z" transform="translate(-407.231 -138)"/></g><g transform="translate(148.429 4.315)"><path d="M461.858,177.794a2.726,2.726,0,0,1-.691-.092,2.663,2.663,0,0,1-1.879-3.259l7.529-28.025a2.66,2.66,0,0,1,5.137,1.382l-7.529,28.025A2.663,2.663,0,0,1,461.858,177.794Z" transform="translate(-459.197 -144.454)"/></g><g transform="translate(181.178 19.394)"><path d="M510.838,197.489a2.659,2.659,0,0,1-2.3-3.987l14.5-25.161a2.657,2.657,0,1,1,4.606,2.652l-14.5,25.161A2.656,2.656,0,0,1,510.838,197.489Z" transform="translate(-508.181 -167.008)"/></g><g transform="translate(209.618 44.278)"><path d="M553.379,230.081a2.661,2.661,0,0,1-1.879-4.542l20.534-20.531a2.659,2.659,0,0,1,3.759,3.763L555.259,229.3A2.649,2.649,0,0,1,553.379,230.081Z" transform="translate(-550.721 -204.229)"/></g><g transform="translate(0 51.043)"><path d="M260.345,240.2a2.657,2.657,0,0,1-1.881-.783l-20.5-20.536a2.658,2.658,0,1,1,3.763-3.755l20.5,20.536a2.66,2.66,0,0,1-1.882,4.538Z" transform="translate(-237.185 -214.347)"/></g><g transform="translate(32.928 24.189)"><path d="M303.622,204.631a2.664,2.664,0,0,1-2.3-1.33l-14.524-25.129a2.659,2.659,0,0,1,4.606-2.66l14.524,25.129a2.664,2.664,0,0,1-2.3,3.991Z" transform="translate(-286.437 -174.18)"/></g><g transform="translate(71.712 6.805)"><path d="M354.635,181.517a2.662,2.662,0,0,1-2.567-1.969l-7.529-28.025a2.66,2.66,0,0,1,5.137-1.382l7.529,28.025a2.663,2.663,0,0,1-1.879,3.259A2.733,2.733,0,0,1,354.635,181.517Z" transform="translate(-344.448 -148.178)"/></g><g transform="translate(51.487 64.981)"><path d="M328.315,345.813a2.653,2.653,0,0,1-2.3-1.326l-4.866-8.384a2.658,2.658,0,0,1,.644-3.416l13.244-10.541a52.865,52.865,0,0,1-1.832-6.914l-16.746-2.517a2.659,2.659,0,0,1-2.263-2.628v-9.659a2.656,2.656,0,0,1,2.265-2.628l16.742-2.508a52.257,52.257,0,0,1,1.83-6.914l-13.24-10.537a2.663,2.663,0,0,1-.646-3.416l4.866-8.392a2.662,2.662,0,0,1,3.275-1.138l15.744,6.2a51.445,51.445,0,0,1,5.059-5.048l-6.2-15.755a2.663,2.663,0,0,1,1.147-3.279l8.382-4.833a2.663,2.663,0,0,1,3.407.647l10.536,13.23a49.967,49.967,0,0,1,6.886-1.845l2.508-16.749a2.66,2.66,0,0,1,2.631-2.265h9.694a2.658,2.658,0,0,1,2.629,2.265l2.52,16.749a50.683,50.683,0,0,1,6.912,1.849l10.507-13.23a2.656,2.656,0,0,1,3.41-.651l8.386,4.833a2.664,2.664,0,0,1,1.147,3.279l-6.2,15.755a51.814,51.814,0,0,1,5.058,5.048l15.778-6.2a2.65,2.65,0,0,1,3.278,1.147l4.828,8.392a2.661,2.661,0,0,1-.648,3.408l-13.234,10.533a49.457,49.457,0,0,1,1.841,6.919l16.725,2.508a2.656,2.656,0,0,1,2.265,2.628v9.659a2.659,2.659,0,0,1-2.263,2.628l-16.729,2.512a50.066,50.066,0,0,1-1.843,6.919l13.238,10.541a2.661,2.661,0,0,1,.648,3.408l-4.828,8.384a2.639,2.639,0,0,1-3.278,1.147l-17.563-6.906a2.657,2.657,0,1,1,1.945-4.945l15.43,6.067,2.545-4.418-12.944-10.306a2.661,2.661,0,0,1-.826-3.035,44.821,44.821,0,0,0,2.546-9.578,2.657,2.657,0,0,1,2.235-2.245l16.372-2.46v-5.081l-16.37-2.453a2.654,2.654,0,0,1-2.237-2.245,44.039,44.039,0,0,0-2.542-9.57,2.659,2.659,0,0,1,.822-3.043l12.944-10.3-2.545-4.426-15.43,6.064a2.644,2.644,0,0,1-3.051-.811,46.218,46.218,0,0,0-7.018-7.015,2.663,2.663,0,0,1-.8-3.04l6.068-15.4-4.416-2.544-10.28,12.941a2.652,2.652,0,0,1-3.055.819,45.354,45.354,0,0,0-9.579-2.564,2.663,2.663,0,0,1-2.217-2.233L386.8,240.516h-5.115l-2.455,16.377a2.665,2.665,0,0,1-2.219,2.233,44.221,44.221,0,0,0-9.537,2.56,2.656,2.656,0,0,1-3.063-.811L354.1,247.93l-4.414,2.544,6.058,15.4a2.661,2.661,0,0,1-.8,3.04,45.956,45.956,0,0,0-7.015,7.011,2.638,2.638,0,0,1-3.053.815l-15.4-6.064-2.569,4.43,12.942,10.3a2.66,2.66,0,0,1,.823,3.043,46.679,46.679,0,0,0-2.549,9.6,2.656,2.656,0,0,1-2.233,2.212l-16.371,2.453V307.8l16.373,2.46a2.657,2.657,0,0,1,2.231,2.213,47.54,47.54,0,0,0,2.553,9.611,2.662,2.662,0,0,1-.827,3.035l-12.942,10.3,2.567,4.422,15.4-6.067a2.658,2.658,0,1,1,1.95,4.945l-17.532,6.906A2.6,2.6,0,0,1,328.315,345.813Z" transform="translate(-314.197 -235.195)"/></g><g transform="translate(57.569 214.425)"><path d="M448.564,464.045H325.952a2.66,2.66,0,0,1,0-5.32H448.564a2.66,2.66,0,0,1,0,5.32Z" transform="translate(-323.293 -458.725)"/></g><g transform="translate(57.569 232.367)"><path d="M448.564,490.883H325.952a2.66,2.66,0,0,1,0-5.32H448.564a2.66,2.66,0,0,1,0,5.32Z" transform="translate(-323.293 -485.563)"/></g><g transform="translate(57.569 248.721)"><path d="M448.564,515.344H325.952a2.661,2.661,0,0,1,0-5.321H448.564a2.661,2.661,0,0,1,0,5.321Z" transform="translate(-323.293 -510.023)"/></g><g transform="translate(87.104 264.495)"><path d="M433.667,567.753H370.128a2.659,2.659,0,0,1-2.658-2.66V536.277a2.659,2.659,0,0,1,2.658-2.66h63.539a2.659,2.659,0,0,1,2.658,2.66v28.816A2.659,2.659,0,0,1,433.667,567.753Zm-60.881-5.32h58.222v-23.5H372.786Z" transform="translate(-367.47 -533.617)"/></g><g transform="translate(108.679 293.31)"><path d="M422.8,606.992H402.4a2.659,2.659,0,0,1-2.658-2.66V579.378a2.659,2.659,0,0,1,2.658-2.66h20.4a2.659,2.659,0,0,1,2.658,2.66v24.953A2.659,2.659,0,0,1,422.8,606.992Zm-17.74-5.32h15.081V582.038H405.058Z" transform="translate(-399.742 -576.718)"/></g><path class="a" d="M412.2,347.343a9.911,9.911,0,0,0,6.455-3.375,10.644,10.644,0,0,0,2.555-7.218,8.945,8.945,0,0,0-1.792-5.863c-1.214-1.486-3.629-2.7-7.218-3.631Zm-3.973-46.455a9.645,9.645,0,0,0-6.173,3.148,8.792,8.792,0,0,0-2.239,6,8.7,8.7,0,0,0,1.9,5.756c1.278,1.558,3.449,2.736,6.516,3.491Zm0,58.846V353a24.959,24.959,0,0,1-8.172-2.237,14.588,14.588,0,0,1-5.459-5.252,18.876,18.876,0,0,1-2.652-8.868l6.724-1.278c.523,3.623,1.418,6.283,2.763,7.977a9.809,9.809,0,0,0,6.8,4V326.26a35.746,35.746,0,0,1-8.484-3.527,12.517,12.517,0,0,1-4.939-4.933,15.123,15.123,0,0,1-1.724-7.214,14.746,14.746,0,0,1,5.072-11.632c2.245-2,5.631-3.2,10.074-3.654v-3.208H412.2V295.3a16.46,16.46,0,0,1,9.249,3.446,15.56,15.56,0,0,1,5.281,10.083l-6.9,1.07a11.281,11.281,0,0,0-2.482-6.108,8.973,8.973,0,0,0-5.147-2.832V320.32a65.124,65.124,0,0,1,6.695,2A16.847,16.847,0,0,1,424,325.709a13.657,13.657,0,0,1,3.038,4.686,16.457,16.457,0,0,1,1.034,5.9,16.141,16.141,0,0,1-4.414,11.632,16.349,16.349,0,0,1-11.462,5.006v6.8Z" transform="translate(-288.478 -189.072)"/><rect width="20.057" height="22.731" transform="translate(111.526 296.842)"/><rect width="63.513" height="28.08" transform="translate(89.464 267.425)"/></g><path class="b" d="M204.286,262.474,483.745,213V379.472L204.286,429.614Z" transform="translate(0 -24.858)"/><g transform="translate(220.302 193.038)"><rect class="c" width="243.023" height="53.256" rx="10" transform="translate(0 35.151) rotate(-8)"/><text class="d" transform="translate(29.296 74.89) rotate(-8)"><tspan x="0" y="0">National</tspan></text></g><g transform="translate(221.358 260.515)"><rect class="e" width="243.023" height="53.256" rx="10" transform="translate(0 18.24) rotate(-3.732)"/><text class="f" transform="translate(21.078 57.573) rotate(-3.733)"><tspan x="0" y="0">Inventor’s</tspan></text></g><g transform="translate(220.302 308.666)"><rect class="g" width="243.023" height="53.256" rx="10" transform="translate(0 38.519) rotate(-8)"/><text class="h" transform="translate(15.416 74.465) rotate(-8)"><tspan x="0" y="0">Challenge</tspan></text></g></g></svg>